<?xml version="1.0" standalone="no"?>
<!DOCTYPE svg PUBLIC "-//W3C//DTD SVG 20010904//EN"
 "http://www.w3.org/TR/2001/REC-SVG-20010904/DTD/svg10.dtd">
<svg version="1.0" xmlns="http://www.w3.org/2000/svg"
 width="512.000000pt" height="512.000000pt" viewBox="0 0 512.000000 512.000000"
 preserveAspectRatio="xMidYMid meet">

<g transform="translate(0.000000,512.000000) scale(0.100000,-0.100000)"
fill="#ff6f61" >
<path d="M2420 4465 c-84 -18 -212 -83 -278 -141 -62 -54 -133 -150 -166 -227
-27 -59 -56 -186 -56 -240 0 -19 -7 -40 -15 -47 -20 -17 -54 -3 -61 26 -8 33
11 160 35 232 11 31 18 58 17 60 -12 11 -167 -35 -245 -74 -212 -105 -366
-325 -390 -558 -29 -295 99 -544 367 -709 111 -69 142 -99 142 -137 0 -20 2
-20 798 -20 l798 0 12 45 c10 39 20 50 69 81 139 89 168 111 227 176 123 132
188 302 188 487 -1 129 -17 195 -79 321 -38 79 -61 109 -133 181 -72 73 -101
94 -180 132 -80 38 -235 85 -246 75 -1 -2 6 -29 17 -60 24 -72 43 -199 35
-232 -7 -28 -41 -43 -60 -27 -7 6 -17 44 -21 83 -38 390 -396 654 -775 573z"/>
<path d="M3802 2422 c-163 -79 -300 -152 -325 -173 -65 -56 -109 -146 -115
-237 l-5 -74 -44 -27 c-25 -14 -58 -34 -74 -44 l-30 -17 40 -48 c42 -49 91
-139 91 -165 0 -28 14 -25 88 18 l74 42 69 -35 c62 -32 77 -36 147 -36 61 0
88 5 132 26 61 27 537 341 558 366 28 36 1 92 -46 92 -13 0 -103 -54 -201
-120 -195 -130 -223 -143 -240 -112 -15 27 4 42 209 161 177 103 210 128 210
161 0 25 -48 62 -72 54 -10 -3 -91 -48 -181 -101 -223 -131 -235 -137 -253
-122 -19 16 -18 43 4 61 9 8 96 59 192 113 96 54 183 105 193 113 35 31 10
102 -38 102 -9 0 -105 -49 -212 -110 -192 -108 -238 -126 -250 -94 -10 26 23
48 217 139 102 48 193 94 203 103 36 32 9 103 -39 101 -10 0 -146 -62 -302
-137z"/>
<path d="M1780 2335 c0 -212 0 -215 23 -229 19 -13 126 -14 776 -9 715 6 755
7 773 25 16 16 18 37 18 223 l0 205 -795 0 -795 0 0 -215z"/>
<path d="M938 2485 c-81 -20 -128 -46 -175 -98 -124 -134 -61 -362 155 -569
216 -206 469 -269 664 -166 l57 30 66 -36 c41 -24 65 -32 65 -24 0 27 59 137
94 176 l37 40 -64 36 -64 36 -5 77 c-16 273 -307 496 -663 509 -75 2 -128 -1
-167 -11z"/>
<path d="M1947 1770 c-64 -58 -119 -186 -101 -233 3 -9 62 -51 130 -92 l124
-77 180 97 c99 53 182 99 184 103 5 9 -435 242 -458 242 -9 0 -36 -18 -59 -40z"/>
<path d="M2390 1434 c-382 -206 -711 -386 -731 -399 -48 -31 -89 -113 -89
-176 0 -88 45 -158 124 -195 56 -26 105 -30 157 -12 19 6 160 91 314 188 350
221 602 378 865 538 113 68 213 131 223 140 40 36 4 161 -71 241 -33 35 -56
51 -73 51 -13 -1 -337 -170 -719 -376z"/>
<path d="M2822 1158 l-192 -120 287 -180 c159 -99 306 -189 328 -199 83 -39
180 -16 247 59 78 86 75 204 -6 287 -34 35 -230 149 -452 263 -17 9 -47 -6
-212 -110z"/>
</g>
</svg>
